<?xml version="1.0" encoding="utf-8"?>
<!-- Generator: Adobe Illustrator 26.4.1, SVG Export Plug-In . SVG Version: 6.00 Build 0)  -->
<svg version="1.1" id="icon" xmlns="http://www.w3.org/2000/svg" xmlns:xlink="http://www.w3.org/1999/xlink" x="0px" y="0px"
	 viewBox="0 0 32 32" style="enable-background:new 0 0 32 32;" xml:space="preserve">
<style type="text/css">
	.st0{fill:#FFFFFF;}
	.st1{fill:none;}
</style>
<rect x="10" y="15" class="st0" width="12" height="2"/>
<path class="st0" d="M8.7,6.3C8.9,5.9,9,5.4,9,5c0-1.7-1.3-3-3-3S3,3.3,3,5s1.3,3,3,3c0.4,0,0.9-0.1,1.3-0.3l2.7,2.7V13h2V9.6
	L8.7,6.3z M6,6C5.4,6,5,5.6,5,5s0.4-1,1-1s1,0.4,1,1C7,5.6,6.6,6,6,6z"/>
<path class="st0" d="M19,5c0-1.7-1.3-3-3-3c-1.7,0-3,1.3-3,3c0,1.3,0.8,2.4,2,2.8V13h2V7.8C18.2,7.4,19,6.3,19,5z M16,6
	c-0.6,0-1-0.4-1-1s0.4-1,1-1c0.6,0,1,0.4,1,1C17,5.6,16.6,6,16,6z"/>
<path class="st0" d="M26,2c-1.7,0-3,1.3-3,3c0,0.4,0.1,0.9,0.3,1.3L20,9.6V13h2v-2.6l2.7-2.7C25.1,7.9,25.6,8,26,8c1.7,0,3-1.3,3-3
	S27.7,2,26,2z M26,6c-0.6,0-1-0.4-1-1s0.4-1,1-1s1,0.4,1,1C27,5.6,26.6,6,26,6z"/>
<path class="st0" d="M12,19h-2v2.6l-2.7,2.7C6.9,24.1,6.4,24,6,24c-1.7,0-3,1.3-3,3s1.3,3,3,3s3-1.3,3-3c0-0.4-0.1-0.9-0.3-1.3
	l3.3-3.3V19z M6,28c-0.6,0-1-0.4-1-1s0.4-1,1-1s1,0.4,1,1C7,27.6,6.6,28,6,28z"/>
<path class="st0" d="M17,24.2V19h-2v5.2c-1.6,0.6-2.4,2.3-1.8,3.8c0.6,1.6,2.3,2.4,3.8,1.8s2.4-2.3,1.8-3.8
	C18.5,25.2,17.9,24.5,17,24.2z M16,28c-0.6,0-1-0.4-1-1s0.4-1,1-1c0.6,0,1,0.4,1,1C17,27.6,16.6,28,16,28z"/>
<path class="st0" d="M26,24c-0.4,0-0.9,0.1-1.3,0.3L22,21.6V19h-2v3.4l3.3,3.3C23.1,26.1,23,26.6,23,27c0,1.7,1.3,3,3,3s3-1.3,3-3
	S27.7,24,26,24z M26,28c-0.6,0-1-0.4-1-1s0.4-1,1-1s1,0.4,1,1C27,27.6,26.6,28,26,28z"/>
<rect id="_Transparent_Rectangle_" class="st1" width="32" height="32"/>
</svg>
